<svg width="24" height="24" viewBox="0 0 24 24" fill="none" xmlns="http://www.w3.org/2000/svg">
<path d="M15.5 14H17.5L16.5 16.5L15.5 14Z" fill="currentColor"/>
<path d="M12 2C6.48 2 2 6.48 2 12C2 17.52 6.48 22 12 22C17.52 22 22 17.52 22 12C22 6.48 17.52 2 12 2ZM12 20C7.59 20 4 16.41 4 12C4 7.59 7.59 4 12 4C16.41 4 20 7.59 20 12C20 16.41 16.41 20 12 20Z" fill="currentColor"/>
<path d="M12 14C13.1 14 14 13.1 14 12C14 10.9 13.1 10 12 10C10.9 10 10 10.9 10 12C10 13.1 10.9 14 12 14Z" fill="currentColor"/>
<path d="M6.5 12C6.5 11.17 6.67 10.42 7 9.77L5.5 8.5C4.83 9.58 4.5 10.75 4.5 12C4.5 13.25 4.83 14.42 5.5 15.5L7 14.23C6.67 13.58 6.5 12.83 6.5 12Z" fill="currentColor"/>
<path d="M17.5 12C17.5 12.83 17.33 13.58 17 14.23L18.5 15.5C19.17 14.42 19.5 13.25 19.5 12C19.5 10.75 19.17 9.58 18.5 8.5L17 9.77C17.33 10.42 17.5 11.17 17.5 12Z" fill="currentColor"/>
</svg>
